<?xml version="1.0" encoding="utf-8"?>
<!-- Generator: Adobe Illustrator 22.0.1, SVG Export Plug-In . SVG Version: 6.00 Build 0)  -->
<svg version="1.1" xmlns="http://www.w3.org/2000/svg" xmlns:xlink="http://www.w3.org/1999/xlink" x="0px" y="0px"
	 viewBox="0 0 200 200" style="enable-background:new 0 0 200 200;" xml:space="preserve">
<style type="text/css">
	.st0{display:none;}
	.st1{display:inline;fill:#6E9C91;}
	.st2{fill:none;stroke:#449FDB;}
	.st3{fill:#FFFFFF;}
	.st4{display:none;fill:none;stroke:#FF0000;stroke-width:2;stroke-miterlimit:10;}
</style>
<g id="Layer_2" class="st0">
	<rect y="-10" class="st1" width="200" height="200"/>
</g>
<g id="Layer_1">
	<g id="icomoon-ignore">
		<line class="st2" x1="0" y1="0" x2="0" y2="0"/>
	</g>
	<path class="st3" d="M100.1,117.9L74.6,97l-55.4,65.4H181l-55.4-66L100.1,117.9L100.1,117.9z M187,37.6H13.2l86.9,73.1L187,37.6
		L187,37.6z M129.4,93l58.1,69.3V43.9C187.5,43.9,129.4,93,129.4,93z M12.5,43.9v118.4L70.6,93C70.6,93,12.5,43.9,12.5,43.9z"/>
	<line class="st4" x1="13.2" y1="37.6" x2="100.1" y2="110.7"/>
	<line class="st4" x1="187" y1="37.6" x2="100.1" y2="110.7"/>
</g>
</svg>
