<?xml version="1.0" encoding="utf-8"?>
<!-- Generator: Adobe Illustrator 22.1.0, SVG Export Plug-In . SVG Version: 6.00 Build 0)  -->
<svg version="1.1" id="Layer_1" xmlns="http://www.w3.org/2000/svg" xmlns:xlink="http://www.w3.org/1999/xlink" x="0px" y="0px"
	 viewBox="0 0 1000 1000" style="enable-background:new 0 0 1000 1000;" xml:space="preserve">
<style type="text/css">
	.st0{fill-rule:evenodd;clip-rule:evenodd;fill:#1E5B48;}
</style>
<g>
	<g>
		<g>
			<path class="st0" d="M795.4-0.5H204.6C91.6-0.5,0,91.1,0,204.2v591.1c0,113,91.6,204.7,204.6,204.7h590.8
				c113,0,204.6-91.6,204.6-204.7V204.2C1000,91.1,908.4-0.5,795.4-0.5z M752.6,157.5c4.5,7,9,14,13.5,21c-1,1.5-2,3-3,4.5
				c-18.8,38.8-89,28.6-133.4,37.5c-16,2.5-32,5-48,7.5c-8.5,11.3,1.3,20.7,0,30c-4.6,33.7-17,72.9-25.5,111
				c-19.2,86.4-27.7,179.8-48,270c-6.5,41.5-13,83-19.5,124.5c7.5,32,15,64,22.5,96c-0.5,0.5-1,1-1.5,1.5c-2,0-4,0-6,0
				c-25.1-13.9-34.9-72.6-28.5-112.5c2.6-16,8.1-38.5,4.5-54c-2.5,0-5,0-7.5,0c-0.7,22.5-14.8,13-22.5,27
				c-11.4,45.5,23.8,102.6,13.5,147c-23.6,0.2-31.5-12.7-45-22.5c-5,2.5-10,5-15,7.5c-10.5-15.7-42.2-88.1-31.5-115.5
				c4,1.5,8,3,12,4.5c-2.8-35.2-29.3-50.4,9-63c0-13.5,0-27,0-40.5c-5-0.5-10-1-15-1.5c0-1,0-2,0-3c0.5-1,1-2,1.5-3
				c10-0.5,15.7-2.2,19.5-9c3-4.4,3.3-9.1,1.5-15c-5-1-10-2-15-3c-0.7-33.5,7.7-47.3,24-63c0-33.5,0-67,0-100.5
				c10-35.6,39.3-123.6,30-166.5c-0.5,0-1,0-1.5,0c-48.4,5.1-112.5,12.6-163.4-1.5c0-1.5,0-3,0-4.5c1-1,2-2,3-3
				c43.8-3.5,100.1-7.6,163.4-7.5c0.4-9.4,0.1-18.7-3-24c-42,5-84,10-125.9,15c-3-2.5-6-5-9-7.5c-18.5,2.5-37,5-55.5,7.5
				c-7-6-14-12-21-18c7.5-21,4.1-31.9,0-49.5c27.3-41.9,72.1-26.3,131.9-34.5c57-2,113.9-4,170.9-6c58.4-9.1,194.4-15.5,242.9-3
				c0.5,5.5,1,11,1.5,16.5C765.2,154,757,154.1,752.6,157.5z"/>
		</g>
	</g>
	<g>
		<g>
			<path class="st0" d="M418.3,585c8.5-29,15.6-22.6,7.5-60c-3-0.5-6-1-9-1.5c-6.5,31.1-21.9,149.3-15,177c5-0.5,10-1,15-1.5
				c0-2,0-4,0-6c-3.9-11.7-12.8-38-6-52.5c4-5,8-10,12-15C428.2,607.7,414.3,598.5,418.3,585z"/>
		</g>
	</g>
</g>
</svg>
