<?xml version="1.0" encoding="utf-8"?>
<!-- Generator: Adobe Illustrator 22.1.0, SVG Export Plug-In . SVG Version: 6.00 Build 0)  -->
<svg version="1.1" id="Layer_1" xmlns="http://www.w3.org/2000/svg" xmlns:xlink="http://www.w3.org/1999/xlink" x="0px" y="0px"
	 viewBox="0 0 16 16" style="enable-background:new 0 0 16 16;" xml:space="preserve">
<style type="text/css">
	.st0{fill-rule:evenodd;clip-rule:evenodd;fill:#1E5B48;}
</style>
<g>
	<g>
		<g>
			<path class="st0" d="M12.7,0H3.3C1.5,0,0,1.5,0,3.3v9.5C0,14.5,1.5,16,3.3,16h9.4c1.8,0,3.3-1.5,3.3-3.3V3.3
				C16,1.5,14.5,0,12.7,0z M12.3,2.9C12.2,2.9,12.2,2.9,12.3,2.9c-0.3,0.7-1.5,0.5-2.2,0.7c-0.3,0-0.5,0.1-0.8,0.1
				c-0.1,0.2,0,0.3,0,0.5C9.2,4.7,9,5.3,8.9,5.9c-0.3,1.4-0.4,2.9-0.8,4.3c-0.1,0.7-0.2,1.3-0.3,2c0.1,0.5,0.2,1,0.4,1.5
				c0,0,0,0,0,0c0,0-0.1,0-0.1,0c-0.4-0.2-0.6-1.2-0.5-1.8c0-0.3,0.1-0.6,0.1-0.9c0,0-0.1,0-0.1,0c0,0.4-0.2,0.2-0.4,0.4
				c-0.2,0.7,0.4,1.6,0.2,2.4c-0.4,0-0.5-0.2-0.7-0.4c-0.1,0-0.2,0.1-0.2,0.1c-0.2-0.3-0.7-1.4-0.5-1.8c0.1,0,0.1,0,0.2,0.1
				c0-0.6-0.5-0.8,0.1-1c0-0.2,0-0.4,0-0.6c-0.1,0-0.2,0-0.2,0c0,0,0,0,0,0c0,0,0,0,0,0c0.2,0,0.3,0,0.3-0.1c0-0.1,0.1-0.1,0-0.2
				c-0.1,0-0.2,0-0.2,0c0-0.5,0.1-0.8,0.4-1c0-0.5,0-1.1,0-1.6c0.2-0.6,0.6-2,0.5-2.7c0,0,0,0,0,0c-0.8,0.1-1.8,0.2-2.6,0
				c0,0,0,0,0-0.1c0,0,0,0,0,0C5.1,4.2,6,4.1,7,4.1c0-0.2,0-0.3,0-0.4C6.3,3.8,5.7,3.9,5,4c0,0-0.1-0.1-0.1-0.1C4.5,3.9,4.3,3.9,4,4
				C3.8,3.9,3.7,3.8,3.6,3.7c0.1-0.3,0.1-0.5,0-0.8c0.4-0.7,1.2-0.4,2.1-0.6c0.9,0,1.8-0.1,2.7-0.1c0.9-0.1,3.1-0.2,3.9,0
				c0,0.1,0,0.2,0,0.3c-0.1,0-0.3,0-0.3,0C12.1,2.6,12.2,2.8,12.3,2.9z"/>
		</g>
	</g>
	<g>
		<g>
			<path class="st0" d="M6.7,9.4c0.1-0.5,0.2-0.4,0.1-1c0,0-0.1,0-0.1,0c-0.1,0.5-0.4,2.4-0.2,2.8c0.1,0,0.2,0,0.2,0
				c0,0,0-0.1,0-0.1c-0.1-0.2-0.2-0.6-0.1-0.8c0.1-0.1,0.1-0.2,0.2-0.2C6.8,9.7,6.6,9.6,6.7,9.4z"/>
		</g>
	</g>
</g>
</svg>
